<mxfile host="app.diagrams.net" modified="2023-04-12T07:15:28.276Z" agent="Mozilla/5.0 (X11; Linux x86_64; rv:109.0) Gecko/20100101 Firefox/111.0" etag="UJpjy5PUuQZPoW6y1Qg7" version="21.1.6" type="github">
  <diagram id="C5RBs43oDa-KdzZeNtuy" name="Page-1">
    <mxGraphModel dx="926" dy="503" grid="1" gridSize="10" guides="1" tooltips="1" connect="1" arrows="1" fold="1" page="1" pageScale="1" pageWidth="827" pageHeight="1169" math="0" shadow="0">
      <root>
        <mxCell id="WIyWlLk6GJQsqaUBKTNV-0" />
        <mxCell id="WIyWlLk6GJQsqaUBKTNV-1" parent="WIyWlLk6GJQsqaUBKTNV-0" />
        <mxCell id="inBO98-tozbLzTro_9F8-2" value="" style="swimlane;startSize=0;fillColor=#d5e8d4;strokeColor=#82b366;swimlaneFillColor=default;gradientColor=#97d077;" vertex="1" parent="WIyWlLk6GJQsqaUBKTNV-1">
          <mxGeometry x="230" y="270" width="250" height="230" as="geometry">
            <mxRectangle x="230" y="270" width="50" height="40" as="alternateBounds" />
          </mxGeometry>
        </mxCell>
        <mxCell id="inBO98-tozbLzTro_9F8-3" value="Action " style="swimlane;whiteSpace=wrap;html=1;fillColor=#d5e8d4;strokeColor=#82b366;gradientColor=#97d077;" vertex="1" parent="inBO98-tozbLzTro_9F8-2">
          <mxGeometry x="49" y="20" width="150" height="130" as="geometry" />
        </mxCell>
        <mxCell id="inBO98-tozbLzTro_9F8-25" value="&lt;div&gt;{&lt;/div&gt;&lt;div&gt;type: ...&lt;/div&gt;&lt;div&gt;payload:data&lt;/div&gt;&lt;div&gt;}&lt;/div&gt;&lt;div&gt;&lt;br&gt;&lt;/div&gt;" style="text;html=1;align=center;verticalAlign=middle;resizable=0;points=[];autosize=1;strokeColor=#6c8ebf;fillColor=#dae8fc;gradientColor=#7ea6e0;" vertex="1" parent="inBO98-tozbLzTro_9F8-3">
          <mxGeometry x="30" y="30" width="90" height="90" as="geometry" />
        </mxCell>
        <mxCell id="inBO98-tozbLzTro_9F8-4" value="&lt;div&gt;Middlewares&lt;/div&gt;&lt;div&gt;(prepare the data)&lt;br&gt;&lt;/div&gt;" style="rounded=1;whiteSpace=wrap;html=1;fillColor=#fff2cc;gradientColor=#ffd966;strokeColor=#d6b656;" vertex="1" parent="inBO98-tozbLzTro_9F8-2">
          <mxGeometry x="50" y="160" width="150" height="60" as="geometry" />
        </mxCell>
        <mxCell id="inBO98-tozbLzTro_9F8-7" value="" style="endArrow=classic;html=1;rounded=0;" edge="1" parent="WIyWlLk6GJQsqaUBKTNV-1">
          <mxGeometry width="50" height="50" relative="1" as="geometry">
            <mxPoint x="331" y="270" as="sourcePoint" />
            <mxPoint x="541" y="170" as="targetPoint" />
            <Array as="points">
              <mxPoint x="331" y="170" />
            </Array>
          </mxGeometry>
        </mxCell>
        <mxCell id="inBO98-tozbLzTro_9F8-8" value="Reducer&lt;span style=&quot;white-space: pre;&quot;&gt;	&lt;/span&gt;" style="rounded=1;whiteSpace=wrap;html=1;fillColor=#f5f5f5;gradientColor=#b3b3b3;strokeColor=#666666;" vertex="1" parent="WIyWlLk6GJQsqaUBKTNV-1">
          <mxGeometry x="560" y="140" width="130" height="60" as="geometry" />
        </mxCell>
        <mxCell id="inBO98-tozbLzTro_9F8-9" value="" style="endArrow=classic;html=1;rounded=0;" edge="1" parent="WIyWlLk6GJQsqaUBKTNV-1">
          <mxGeometry width="50" height="50" relative="1" as="geometry">
            <mxPoint x="619.09" y="200" as="sourcePoint" />
            <mxPoint x="619" y="270" as="targetPoint" />
          </mxGeometry>
        </mxCell>
        <mxCell id="inBO98-tozbLzTro_9F8-10" value="&lt;div&gt;Store &lt;br&gt;&lt;/div&gt;&lt;div&gt;(Global State)&lt;br&gt;&lt;/div&gt;" style="rounded=1;whiteSpace=wrap;html=1;fillColor=#d5e8d4;gradientColor=#97d077;strokeColor=#82b366;" vertex="1" parent="WIyWlLk6GJQsqaUBKTNV-1">
          <mxGeometry x="520" y="270" width="230" height="60" as="geometry" />
        </mxCell>
        <mxCell id="inBO98-tozbLzTro_9F8-11" value="" style="endArrow=classic;html=1;rounded=0;" edge="1" parent="WIyWlLk6GJQsqaUBKTNV-1">
          <mxGeometry width="50" height="50" relative="1" as="geometry">
            <mxPoint x="620" y="330" as="sourcePoint" />
            <mxPoint x="620" y="490" as="targetPoint" />
          </mxGeometry>
        </mxCell>
        <mxCell id="inBO98-tozbLzTro_9F8-12" value="Read State" style="rounded=0;whiteSpace=wrap;html=1;fillColor=#fff2cc;gradientColor=#ffd966;strokeColor=#d6b656;" vertex="1" parent="WIyWlLk6GJQsqaUBKTNV-1">
          <mxGeometry x="640" y="410" width="120" height="60" as="geometry" />
        </mxCell>
        <mxCell id="inBO98-tozbLzTro_9F8-13" value="React Components " style="rounded=1;whiteSpace=wrap;html=1;fillColor=#dae8fc;gradientColor=#7ea6e0;strokeColor=#6c8ebf;" vertex="1" parent="WIyWlLk6GJQsqaUBKTNV-1">
          <mxGeometry x="550" y="515" width="200" height="85" as="geometry" />
        </mxCell>
        <mxCell id="inBO98-tozbLzTro_9F8-20" style="edgeStyle=orthogonalEdgeStyle;rounded=0;orthogonalLoop=1;jettySize=auto;html=1;exitX=1;exitY=0;exitDx=0;exitDy=0;" edge="1" parent="WIyWlLk6GJQsqaUBKTNV-1" source="inBO98-tozbLzTro_9F8-14">
          <mxGeometry relative="1" as="geometry">
            <mxPoint x="349.9999999999998" y="520" as="targetPoint" />
            <Array as="points">
              <mxPoint x="564" y="560" />
              <mxPoint x="350" y="560" />
            </Array>
          </mxGeometry>
        </mxCell>
        <mxCell id="inBO98-tozbLzTro_9F8-14" value="" style="ellipse;whiteSpace=wrap;html=1;aspect=fixed;" vertex="1" parent="WIyWlLk6GJQsqaUBKTNV-1">
          <mxGeometry x="530" y="537.5" width="40" height="40" as="geometry" />
        </mxCell>
        <mxCell id="inBO98-tozbLzTro_9F8-22" value="" style="endArrow=classic;html=1;rounded=0;" edge="1" parent="WIyWlLk6GJQsqaUBKTNV-1">
          <mxGeometry width="50" height="50" relative="1" as="geometry">
            <mxPoint x="220" y="430" as="sourcePoint" />
            <mxPoint x="160" y="430" as="targetPoint" />
          </mxGeometry>
        </mxCell>
        <mxCell id="inBO98-tozbLzTro_9F8-23" value="" style="endArrow=classic;html=1;rounded=0;entryX=-0.025;entryY=0.921;entryDx=0;entryDy=0;entryPerimeter=0;" edge="1" parent="WIyWlLk6GJQsqaUBKTNV-1" target="inBO98-tozbLzTro_9F8-2">
          <mxGeometry width="50" height="50" relative="1" as="geometry">
            <mxPoint x="160" y="482" as="sourcePoint" />
            <mxPoint x="180" y="480" as="targetPoint" />
            <Array as="points">
              <mxPoint x="180" y="482" />
            </Array>
          </mxGeometry>
        </mxCell>
        <mxCell id="inBO98-tozbLzTro_9F8-24" value="&lt;div&gt;async call&lt;/div&gt;&lt;div&gt;(API)&lt;br&gt;&lt;/div&gt;" style="rounded=1;whiteSpace=wrap;html=1;fillColor=#ffcd28;strokeColor=#d79b00;gradientColor=#ffa500;" vertex="1" parent="WIyWlLk6GJQsqaUBKTNV-1">
          <mxGeometry x="30" y="430" width="120" height="60" as="geometry" />
        </mxCell>
        <mxCell id="inBO98-tozbLzTro_9F8-26" value="Action Creator {}" style="text;html=1;align=center;verticalAlign=middle;resizable=0;points=[];autosize=1;strokeColor=none;fillColor=none;" vertex="1" parent="WIyWlLk6GJQsqaUBKTNV-1">
          <mxGeometry x="295" y="495" width="110" height="30" as="geometry" />
        </mxCell>
        <mxCell id="inBO98-tozbLzTro_9F8-27" value="(Set New State based on the action type)" style="rounded=0;whiteSpace=wrap;html=1;fillColor=#dae8fc;gradientColor=#7ea6e0;strokeColor=#6c8ebf;" vertex="1" parent="WIyWlLk6GJQsqaUBKTNV-1">
          <mxGeometry x="650" y="210" width="150" height="50" as="geometry" />
        </mxCell>
        <mxCell id="inBO98-tozbLzTro_9F8-28" value="&lt;div&gt;Previous State action&lt;/div&gt;&lt;div&gt;&lt;br&gt;&lt;/div&gt;" style="text;html=1;align=center;verticalAlign=middle;resizable=0;points=[];autosize=1;strokeColor=none;fillColor=none;" vertex="1" parent="WIyWlLk6GJQsqaUBKTNV-1">
          <mxGeometry x="555" y="110" width="140" height="40" as="geometry" />
        </mxCell>
        <mxCell id="inBO98-tozbLzTro_9F8-29" value="Modify State (dispatch)" style="whiteSpace=wrap;html=1;fillColor=#fff2cc;gradientColor=#ffd966;strokeColor=#d6b656;" vertex="1" parent="WIyWlLk6GJQsqaUBKTNV-1">
          <mxGeometry x="370" y="570" width="120" height="60" as="geometry" />
        </mxCell>
        <mxCell id="inBO98-tozbLzTro_9F8-31" value="useDispatch()" style="text;html=1;align=center;verticalAlign=middle;resizable=0;points=[];autosize=1;strokeColor=none;fillColor=none;" vertex="1" parent="WIyWlLk6GJQsqaUBKTNV-1">
          <mxGeometry x="360" y="635" width="100" height="30" as="geometry" />
        </mxCell>
      </root>
    </mxGraphModel>
  </diagram>
</mxfile>
